<svg width="333" height="54" viewBox="0 0 333 54" fill="none" xmlns="http://www.w3.org/2000/svg">
<g clip-path="url(#clip0)">
<path fill-rule="evenodd" clip-rule="evenodd" d="M104.29 34.7862C103.877 35.3638 102.53 37.0883 100.854 37.0883C98.5874 37.0883 98.1117 35.4832 98.1117 34.1372C98.1117 31.9233 99.7917 30.8995 104.29 29.7788V34.7862ZM109.891 37.4979C109.825 37.3261 109.648 37.2284 109.474 37.2698L109.419 37.2839C108.903 37.397 108.505 37.3652 108.226 37.1756C107.831 36.9054 107.639 36.2971 107.639 35.3159V26.4409C107.639 22.9744 105.59 21.2168 101.548 21.2168C97.9276 21.2168 95.0917 22.9453 95.0917 25.1521C95.0917 26.2867 95.7768 27.1067 96.7889 27.2299C97.4502 27.3102 98.0807 27.0083 98.539 26.5207C99.429 25.573 99.3135 24.4466 98.2345 23.2366C98.8727 22.5629 100.003 22.1642 101.292 22.1642C103.394 22.1642 104.29 23.4213 104.29 26.3675V28.6102C103.798 28.7639 103.337 28.9094 102.493 29.1089C100.792 29.5118 98.4584 30.048 96.698 31.0294C95.2448 31.8328 94.5078 33.1015 94.5078 34.8006C94.5078 36.6496 95.7109 38.809 99.1019 38.809C101.001 38.809 102.702 37.9 104.448 35.9513C104.599 37.9768 105.36 38.7356 107.206 38.7356C108.093 38.7356 108.803 38.5269 109.647 38.1149C109.876 38.0033 109.985 37.7356 109.891 37.4979Z" fill="#2D2C29"/>
<path fill-rule="evenodd" clip-rule="evenodd" d="M147.562 22.0539C145.486 22.0539 143.103 22.9545 143.103 29.9765C143.103 35.3322 144.669 37.9354 147.89 37.9354C150.973 37.9354 152.348 35.4807 152.348 29.9765C152.348 24.6451 150.783 22.0539 147.562 22.0539ZM147.744 38.8833C142.939 38.8833 139.316 35.0858 139.316 30.0499C139.316 25.1183 143.097 21.1064 147.744 21.1064C152.449 21.1064 156.135 24.9698 156.135 29.9027C156.135 35.4495 151.779 38.8833 147.744 38.8833Z" fill="#2D2C29"/>
<path fill-rule="evenodd" clip-rule="evenodd" d="M64.6692 35.3156V28.8952H67.1194C70.7756 28.8952 73.557 28.1146 75.3869 26.5747C77.2992 24.9651 77.7004 22.9257 77.7004 21.4986C77.7004 15.628 72.0855 14.396 67.3749 14.396L67.3941 14.3955H57.8397C57.6234 14.3955 57.4475 14.573 57.4475 14.7911V14.8174L57.4473 14.809C57.4473 15.0105 57.5691 15.19 57.7566 15.2594C58.6076 15.575 60.9192 15.1308 60.9192 17.6317L60.9194 35.3122C60.9194 36.5982 60.354 37.5055 57.7697 37.7517C57.565 37.7715 57.4102 37.9408 57.4102 38.1453V38.2061C57.4102 38.4242 57.5861 38.6017 57.8023 38.6017H68.0099C68.2259 38.6017 68.4021 38.4242 68.4021 38.2061V38.152C68.4021 37.9475 68.2414 37.7745 68.0367 37.7584C65.2292 37.5318 64.6655 36.6543 64.6655 35.3122V28.9064L64.6692 35.3156ZM73.4759 21.4247C73.4759 25.5095 72.478 27.7599 67.3749 27.7599H64.6692V15.4173H67.4848C72.764 15.4173 73.4759 18.454 73.4759 21.4247Z" fill="#2D2C29"/>
<path fill-rule="evenodd" clip-rule="evenodd" d="M81.1384 27.7729C81.5107 24.0927 82.9344 22.0753 85.1703 22.0753C86.2896 22.0753 87.1189 22.3877 87.7055 23.0307C88.5114 23.914 88.852 25.5091 88.7181 27.7729H81.1384ZM85.4251 21.0977C80.9818 21.0977 77.3672 25.1562 77.3672 30.1447C77.3672 35.1948 80.7563 38.8604 85.4251 38.8604C89.3486 38.8604 91.2575 36.4957 92.3519 34.7169C92.4598 34.5421 92.4126 34.3101 92.2448 34.1889L92.1932 34.1519C92.0239 34.0302 91.7882 34.0642 91.6578 34.2303C90.2148 36.0547 88.9525 37.111 86.7719 37.111C84.0139 37.111 81.0674 35.1941 81.0674 29.814V29.7741C81.0627 29.5364 81.0683 29.2107 81.0769 28.9068H92.3608C92.3917 28.9068 92.4171 28.8825 92.4193 28.8517L92.4257 28.7603C92.5849 26.5533 91.9661 24.5716 90.6837 23.1795C89.4285 21.8175 87.6099 21.0977 85.4251 21.0977Z" fill="#2D2C29"/>
<path fill-rule="evenodd" clip-rule="evenodd" d="M132.194 27.972C132.193 27.9715 132.191 27.9715 132.19 27.9712C129.104 27.0981 127.902 26.2142 127.902 24.819C127.902 23.229 129.153 22.0753 130.876 22.0753C132.904 22.0753 133.772 23.0528 135.912 26.6623L135.94 26.7104C135.951 26.7285 135.97 26.7399 135.991 26.7399H136.284C136.5 26.7399 136.677 26.5622 136.677 26.3443V21.1572C136.677 21.1242 136.65 21.0977 136.618 21.0977H136.23C136.112 21.0977 136.002 21.1505 135.927 21.2424L135.244 22.081C134.382 21.6014 132.978 21.0977 131.568 21.0977C128.025 21.0977 125.549 23.3074 125.549 26.4715C125.549 29.441 127.501 30.554 130.871 31.4722C134.146 32.3765 135.307 33.3173 135.307 35.0659C135.307 37.0086 133.44 37.8827 132.114 37.8827C129.649 37.8827 128.606 36.9581 126.244 32.6755L126.216 32.6244C126.205 32.6056 126.186 32.5937 126.164 32.5937H125.869C125.652 32.5937 125.477 32.7712 125.477 32.9893V38.8009C125.477 38.8336 125.503 38.8604 125.535 38.8604H125.936C126.04 38.8604 126.141 38.8177 126.214 38.7446L127.294 37.6544C128.558 38.4462 130.449 38.8604 131.678 38.8604C133.521 38.8604 135.037 38.2714 136.061 37.1566C136.974 36.1633 137.477 34.7555 137.477 33.1926C137.477 30.4861 136.045 29.0709 132.194 27.972Z" fill="#2D2C29"/>
<path fill-rule="evenodd" clip-rule="evenodd" d="M113.521 36.5161C113.521 37.4122 113.295 37.7055 111.882 37.7955C111.677 37.8086 111.516 37.9814 111.516 38.1896C111.516 38.4073 111.691 38.5845 111.907 38.5845H118.89C119.102 38.5845 119.275 38.41 119.275 38.1961C119.275 37.9849 119.112 37.8116 118.904 37.8012C117.288 37.7228 116.869 37.4588 116.869 36.5159V26.1862C118.018 24.2581 118.845 23.2489 120.239 22.9437C120.172 23.1874 120.127 23.4797 120.127 23.7167C120.127 24.9715 120.997 25.8476 122.24 25.8476C123.462 25.8476 124.316 24.9715 124.316 23.7167C124.316 22.5295 123.581 21.1436 121.51 21.1436C119.812 21.1436 118.19 22.1255 116.797 24.475V21.8178C116.797 21.5471 116.575 21.3295 116.307 21.3364L111.907 21.4549C111.694 21.4611 111.527 21.6339 111.527 21.8488V21.9063C111.527 22.1009 111.667 22.268 111.853 22.2943C113.32 22.5042 113.522 23.2082 113.521 23.9373L113.521 36.5161Z" fill="#2D2C29"/>
<path fill-rule="evenodd" clip-rule="evenodd" d="M161.816 21.3243C161.918 21.3243 162.014 21.3637 162.088 21.4353C162.164 21.5099 162.207 21.6103 162.208 21.7174L162.223 24.6641C162.223 24.6641 163.656 21.208 168.308 21.208H168.348C171.248 21.208 172.911 23.0731 172.911 26.3245V36.4985C172.911 37.3951 173.136 37.6884 174.549 37.7779C174.755 37.7908 174.916 37.9635 174.916 38.172C174.916 38.3894 174.74 38.5667 174.524 38.5667H168.251C168.035 38.5667 167.859 38.3889 167.859 38.171C167.859 37.9598 168.016 37.7873 168.217 37.7699C169.356 37.6718 169.538 37.3813 169.538 36.4985V27.3166C169.538 24.2848 168.684 23.1041 166.491 23.1041C165.01 23.1041 163.796 24.4093 163.039 25.504C163.039 25.504 162.652 25.9933 162.233 26.9133L162.279 36.498C162.279 37.3793 162.456 37.6695 163.564 37.7687C163.763 37.7866 163.92 37.9591 163.92 38.1616C163.92 38.3889 163.744 38.5667 163.528 38.5667H157.294C157.078 38.5667 156.902 38.3894 156.902 38.1718C156.902 37.9636 157.063 37.7908 157.268 37.7776C158.682 37.6876 158.908 37.3944 158.908 36.4985V23.9393C158.908 23.2063 158.705 22.4985 157.23 22.2876C157.044 22.2608 156.902 22.0932 156.902 21.8976V21.8396C156.902 21.624 157.07 21.4502 157.284 21.444L161.816 21.3243Z" fill="#2D2C29"/>
<path fill-rule="evenodd" clip-rule="evenodd" d="M38.4991 3.64298C49.5563 9.99795 52.1301 24.2493 44.4368 38.667C37.6754 51.3412 22.9115 56.7542 11.9108 50.3015C0.90756 43.8479 -1.23961 25.8447 3.48869 15.4843C10.3543 0.440701 26.2822 -3.38056 38.4991 3.64298Z" fill="#007FA3"/>
<path fill-rule="evenodd" clip-rule="evenodd" d="M24.2657 41.1941C23.929 40.9293 23.5506 40.7476 23.1697 40.6705C23.04 40.6452 22.9068 40.6308 22.7754 40.6308C22.0561 40.6308 21.3511 41.0302 20.8899 41.701C20.5046 42.258 20.3471 42.9236 20.4493 43.5699C20.5139 43.9809 20.667 44.3383 20.8926 44.6048C21.1459 44.906 21.5337 45.136 22.0141 45.2741C22.292 45.352 22.5773 45.3931 22.8618 45.3931H22.8626C23.4831 45.3931 24.0413 45.2055 24.4751 44.8502C24.9795 44.436 25.2543 43.8448 25.2481 43.1866C25.2425 42.4187 24.8751 41.6727 24.2657 41.1941ZM38.2437 14.5771C40.4081 16.9083 41.0821 20.446 40.7056 23.347C40.2756 26.6554 38.2882 29.7166 34.9819 31.7464C32.3597 33.3559 28.9154 33.9982 25.526 34.0287C25.499 34.5709 25.3916 36.4382 25.3376 36.7337C25.2579 37.1693 25.1068 37.4043 24.9218 37.6482C24.5579 38.1266 23.9263 38.4358 23.2992 38.616C22.8007 38.759 22.3077 38.8205 21.9581 38.8205C21.8988 38.8205 21.8411 38.8173 21.7846 38.8101C21.416 38.7679 21.0068 38.5932 20.7537 38.3083C20.5011 38.0235 20.3579 37.6633 20.3245 37.2553L20.2962 36.8867C20.2245 36.5691 19.8318 20.4936 19.908 20.7796C19.9647 18.8535 23.0474 18.5174 24.72 18.8575C26.3962 19.1983 25.9718 21.2529 25.9266 23.7781C25.9266 23.7781 25.847 27.0991 25.6924 30.6083C27.8261 30.524 29.5213 29.9105 31.108 29.1153C34.3123 27.5129 36.0083 25.055 36.0083 21.4348C36.0083 17.8146 32.5145 13.7603 26.0698 13.7603C19.6254 13.7603 16.859 15.4001 13.7385 18.0047C13.0349 18.5917 12.4931 19.1834 11.9805 19.5729C11.4682 19.9626 10.1073 20.0221 9.74242 19.1106C9.30282 18.0117 10.1243 16.7866 10.6069 16.1939C11.3647 15.2633 13.2342 13.389 15.306 12.3C17.679 11.0503 20.5822 9.70454 24.624 9.60166C28.2806 9.50845 34.054 9.80716 38.2127 14.5459" fill="#FFFFFE"/>
</g>
<line x1="195.465" y1="18.0361" x2="195.465" y2="42.0583" stroke="#797979"/>
<path d="M232.713 20.8315V31.7886C232.713 34.1709 232.036 36.0178 230.683 37.3293C229.339 38.6326 227.396 39.2842 224.856 39.2842C222.374 39.2842 220.465 38.6492 219.129 37.3792C217.801 36.1091 217.136 34.283 217.136 31.9006V20.8315H222.08V31.5146C222.08 32.8013 222.32 33.7351 222.802 34.3162C223.283 34.8972 223.993 35.1877 224.931 35.1877C225.935 35.1877 226.662 34.9014 227.11 34.3286C227.566 33.7476 227.795 32.8013 227.795 31.4897V20.8315H232.713ZM250.587 39.0352H245.034L241.435 32.075L239.979 32.9465V39.0352H235.035V20.8315H239.979V28.738C240.228 28.2483 240.73 27.4722 241.485 26.4097L245.308 20.8315H250.687L244.947 28.9871L250.587 39.0352Z" fill="#183254"/>
<path d="M256.514 39.0352V20.8315H260.374V35.8477H267.758V39.0352H256.514ZM274.899 27.5552C274.094 27.5552 273.463 27.8125 273.006 28.3271C272.55 28.8335 272.288 29.5557 272.222 30.4937H277.551C277.534 29.5557 277.29 28.8335 276.816 28.3271C276.343 27.8125 275.704 27.5552 274.899 27.5552ZM275.434 39.2842C273.193 39.2842 271.442 38.6658 270.18 37.429C268.918 36.1921 268.287 34.4407 268.287 32.1746C268.287 29.842 268.868 28.0408 270.031 26.7708C271.201 25.4924 272.815 24.8533 274.874 24.8533C276.841 24.8533 278.373 25.4136 279.469 26.5342C280.564 27.6548 281.112 29.2029 281.112 31.1785V33.0212H272.135C272.176 34.1003 272.496 34.9429 273.094 35.5488C273.691 36.1548 274.53 36.4578 275.609 36.4578C276.447 36.4578 277.24 36.3706 277.987 36.1963C278.734 36.022 279.514 35.7439 280.328 35.3621V38.3005C279.664 38.6326 278.954 38.8774 278.198 39.0352C277.443 39.2012 276.522 39.2842 275.434 39.2842ZM291.54 39.0352L290.806 37.1426H290.706C290.067 37.9478 289.407 38.5081 288.726 38.8235C288.054 39.1306 287.174 39.2842 286.087 39.2842C284.75 39.2842 283.696 38.9023 282.924 38.1387C282.16 37.375 281.779 36.2876 281.779 34.8765C281.779 33.3989 282.293 32.3115 283.323 31.6143C284.36 30.9087 285.921 30.5186 288.004 30.4438L290.42 30.3691V29.759C290.42 28.3479 289.698 27.6423 288.253 27.6423C287.141 27.6423 285.833 27.9785 284.331 28.6509L283.073 26.0859C284.676 25.2476 286.452 24.8284 288.403 24.8284C290.27 24.8284 291.702 25.2351 292.698 26.0486C293.694 26.8621 294.192 28.0989 294.192 29.759V39.0352H291.54ZM290.42 32.5854L288.95 32.6353C287.846 32.6685 287.025 32.8677 286.485 33.2329C285.946 33.5981 285.676 34.1543 285.676 34.9014C285.676 35.9722 286.29 36.5076 287.519 36.5076C288.398 36.5076 289.1 36.2544 289.623 35.748C290.154 35.2417 290.42 34.5693 290.42 33.731V32.5854ZM304.384 24.8533C304.899 24.8533 305.326 24.8906 305.667 24.9653L305.38 28.5264C305.073 28.4434 304.699 28.4019 304.26 28.4019C303.048 28.4019 302.101 28.7131 301.421 29.3357C300.748 29.9583 300.412 30.8298 300.412 31.9504V39.0352H296.615V25.1147H299.491L300.051 27.4556H300.238C300.669 26.6753 301.25 26.0486 301.981 25.5754C302.72 25.094 303.521 24.8533 304.384 24.8533ZM319.544 39.0352H315.746V30.9045C315.746 29.9001 315.568 29.1489 315.211 28.6509C314.854 28.1445 314.285 27.8914 313.505 27.8914C312.442 27.8914 311.675 28.2483 311.201 28.9622C310.728 29.6677 310.492 30.8423 310.492 32.4858V39.0352H306.694V25.1147H309.595L310.106 26.8953H310.317C310.741 26.2229 311.322 25.7166 312.061 25.3762C312.808 25.0276 313.654 24.8533 314.601 24.8533C316.219 24.8533 317.448 25.2932 318.286 26.1731C319.125 27.0447 319.544 28.3064 319.544 29.9583V39.0352ZM331.665 34.9014C331.665 36.3291 331.167 37.4165 330.171 38.1636C329.183 38.9106 327.702 39.2842 325.726 39.2842C324.713 39.2842 323.85 39.2136 323.136 39.0725C322.422 38.9397 321.754 38.7405 321.132 38.4749V35.3372C321.837 35.6692 322.63 35.9473 323.51 36.1714C324.398 36.3955 325.178 36.5076 325.851 36.5076C327.229 36.5076 327.917 36.1091 327.917 35.3123C327.917 35.0134 327.826 34.7727 327.644 34.5901C327.461 34.3992 327.146 34.1875 326.697 33.9551C326.249 33.7144 325.651 33.4363 324.904 33.1208C323.833 32.6726 323.045 32.2576 322.539 31.8757C322.041 31.4939 321.675 31.0581 321.443 30.5684C321.219 30.0703 321.107 29.4602 321.107 28.738C321.107 27.5012 321.584 26.5466 322.539 25.8743C323.501 25.1936 324.863 24.8533 326.623 24.8533C328.299 24.8533 329.93 25.2185 331.516 25.949L330.37 28.6882C329.673 28.3894 329.021 28.1445 328.416 27.9536C327.81 27.7627 327.191 27.6672 326.56 27.6672C325.44 27.6672 324.879 27.9702 324.879 28.5762C324.879 28.9165 325.058 29.2112 325.415 29.4602C325.78 29.7092 326.573 30.0786 327.793 30.5684C328.88 31.0083 329.677 31.4192 330.184 31.801C330.69 32.1829 331.063 32.6228 331.304 33.1208C331.545 33.6189 331.665 34.2124 331.665 34.9014Z" fill="#007FA3"/>
<defs>
<clipPath id="clip0">
<rect width="173.976" height="53.049" fill="white" transform="translate(0.992188 0.0195312)"/>
</clipPath>
</defs>
</svg>
